<svg width="35" height="32" viewBox="0 0 35 32" fill="none" xmlns="http://www.w3.org/2000/svg">
<path d="M22.0907 17.8396C21.5203 17.8396 21.0576 17.4127 21.0576 16.8856C21.0576 14.3343 18.8105 12.2596 16.0482 12.2596C15.4778 12.2596 15.0151 11.8328 15.0151 11.3056C15.0151 10.7788 15.4773 10.3516 16.0482 10.3516C19.9493 10.3516 23.1238 13.2827 23.1238 16.8856C23.1238 17.4127 22.6611 17.8396 22.0907 17.8396Z" fill="#3957A3"/>
<path d="M27.7521 17.9176C27.1817 17.9176 26.719 17.4908 26.719 16.9636C26.719 11.4872 21.8946 7.03205 15.9638 7.03205C15.3934 7.03205 14.9307 6.60523 14.9307 6.07804C14.9307 5.5513 15.3929 5.12402 15.9638 5.12402C23.0334 5.12402 28.7847 10.4346 28.7847 16.9636C28.7852 17.4903 28.3225 17.9176 27.7521 17.9176Z" fill="#3957A3"/>
<path d="M33.3005 17.7883C32.7301 17.7883 32.2674 17.3615 32.2674 16.8343C32.2674 8.60409 25.0163 1.90803 16.1039 1.90803C15.5335 1.90803 15.0708 1.48121 15.0708 0.954015C15.0708 0.426821 15.533 0 16.1039 0C26.1556 0 34.3336 7.55201 34.3336 16.8343C34.3336 17.361 33.8709 17.7883 33.3005 17.7883Z" fill="#3957A3"/>
<path d="M23.665 31.3698C18.4397 31.3698 12.9696 28.8687 7.84505 24.1364C-0.029296 16.8634 -2.09249 8.97486 2.18497 2.49244C2.99021 1.27183 4.39127 0.542969 5.93143 0.542969C7.08319 0.542969 8.16714 0.958739 8.98384 1.71385L10.5993 3.20565C11.9889 4.48841 12.2676 6.48024 11.2764 8.04893C9.0696 11.5408 9.83844 16.2635 13.1042 19.2789C15.0523 21.0773 17.7527 22.1087 20.5129 22.1087C22.2346 22.1087 23.8779 21.7136 25.2645 20.9664C25.9262 20.61 26.6815 20.4207 27.4474 20.4207C28.6046 20.4207 29.6921 20.8374 30.5103 21.5921L32.1257 23.0834C33.0706 23.9555 33.5208 25.1581 33.3622 26.3829C33.2012 27.6228 32.4433 28.7094 31.2826 29.3623C28.9158 30.6944 26.353 31.3698 23.665 31.3698ZM5.93143 2.451C5.11722 2.451 4.37631 2.83776 3.94901 3.48559C0.208535 9.15397 2.16154 16.1894 9.30594 22.7874C13.9668 27.091 19.0665 29.4618 23.665 29.4618C25.9681 29.4618 28.1694 28.8803 30.2071 27.7333C30.8234 27.3866 31.2253 26.8115 31.3105 26.1563C31.3933 25.5163 31.1579 24.8879 30.6648 24.4325L29.0494 22.9411C28.3394 22.2855 27.1771 22.146 26.3061 22.6138C24.6034 23.5314 22.6 24.0163 20.5129 24.0163C17.2087 24.0163 13.9753 22.7814 11.6434 20.6275C7.72488 17.0094 6.81993 11.3148 9.49241 7.08755C10.0105 6.26706 9.86536 5.2251 9.13891 4.55425L7.52345 3.06245C7.09615 2.66832 6.53075 2.451 5.93143 2.451Z" fill="#3957A3"/>
</svg>
