<svg width="33" height="32" viewBox="0 0 33 32" fill="none" xmlns="http://www.w3.org/2000/svg">
<path d="M33 11.7632C32.9916 9.73944 32.2225 7.77893 30.82 6.2058C31.2961 4.40723 31.1475 2.51901 30.3947 0.800118C30.3214 0.636777 30.2091 0.490217 30.066 0.370991C29.9228 0.251765 29.7523 0.162839 29.5667 0.110617C29.035 -0.0548626 27.0221 -0.365138 22.9204 2.04811C21.1564 1.6255 19.3365 1.42596 17.5123 1.45514C15.6855 1.42559 13.8631 1.62513 12.0965 2.04811C7.88844 -0.420298 5.70086 -0.0203879 5.26031 0.0968271C5.07371 0.151382 4.90272 0.242727 4.75958 0.364315C4.61644 0.485904 4.5047 0.634725 4.43237 0.800118C3.67764 2.51341 3.52378 4.39639 3.99181 6.19201C2.54349 7.75726 1.77141 9.74708 1.81943 11.7907C1.81943 19.4166 6.62754 21.7196 11.0331 22.5332C10.8069 23.0352 10.6513 23.561 10.5697 24.0983C10.5618 24.1556 10.5618 24.2135 10.5697 24.2707V26.3806C6.55918 26.684 5.70086 24.5534 5.6173 24.3121C5.59786 24.2558 5.57505 24.2006 5.54894 24.1466C4.77431 22.7119 3.41071 21.6103 1.75107 21.0783C1.41666 20.9768 1.05153 21.0001 0.736005 21.143C0.420483 21.2858 0.180413 21.5367 0.0686068 21.8402C-0.0431991 22.1438 -0.0175809 22.4752 0.139824 22.7616C0.297229 23.048 0.573527 23.266 0.907937 23.3675C1.82765 23.6691 2.59462 24.2648 3.06513 25.0429C3.59684 26.6081 5.76922 29.0834 10.5545 28.8076V30.7934C10.5545 31.1134 10.6946 31.4203 10.9439 31.6466C11.1932 31.8729 11.5313 32 11.8838 32C12.2363 32 12.5744 31.8729 12.8237 31.6466C13.073 31.4203 13.2131 31.1134 13.2131 30.7934V24.3603C13.3139 23.6578 13.6507 23.0006 14.1777 22.478C14.3623 22.3211 14.4935 22.1195 14.5556 21.897C14.6178 21.6745 14.6083 21.4405 14.5284 21.2227C14.4484 21.005 14.3013 20.8126 14.1045 20.6685C13.9077 20.5243 13.6695 20.4344 13.4181 20.4095C8.78473 19.92 4.50073 18.5341 4.50073 11.7425C4.46993 10.9227 4.62684 10.106 4.96154 9.34407C5.29625 8.58213 5.80146 7.89152 6.44524 7.31589C6.61837 7.14675 6.73799 6.93831 6.79146 6.71259C6.84494 6.48686 6.83029 6.25222 6.74907 6.03342C6.3016 4.8531 6.27238 3.57523 6.66552 2.37907C8.29651 2.71334 9.82813 3.36498 11.1546 4.28899C11.3251 4.39138 11.5187 4.45758 11.7213 4.48265C11.9238 4.50771 12.1299 4.49101 12.3244 4.43378C14.0121 3.96748 15.7715 3.75096 17.535 3.79255C19.2961 3.75086 21.0531 3.96739 22.7381 4.43378C22.9325 4.49152 23.1387 4.50848 23.3413 4.4834C23.544 4.45832 23.7377 4.39185 23.9079 4.28899C25.1855 3.40038 26.6479 2.75542 28.2071 2.39286C28.5943 3.60226 28.5598 4.89079 28.1083 6.08169C28.034 6.28042 28.0187 6.49344 28.064 6.69925C28.1094 6.90505 28.2137 7.09636 28.3666 7.25384C29.6241 8.47258 30.3363 10.0729 30.3643 11.7425C30.3643 18.5203 25.86 19.9269 21.4469 20.4095C21.1826 20.4362 20.9334 20.5346 20.7318 20.6918C20.5301 20.849 20.3854 21.0578 20.3165 21.2909C20.2476 21.524 20.2577 21.7705 20.3455 21.9983C20.4334 22.226 20.5948 22.4245 20.8088 22.5676C21.2797 22.8917 21.8266 23.8018 21.8266 25.3256V30.7865C21.8266 31.1065 21.9667 31.4134 22.216 31.6397C22.4653 31.866 22.8034 31.9931 23.1559 31.9931C23.5084 31.9931 23.8465 31.866 24.0958 31.6397C24.3451 31.4134 24.4852 31.1065 24.4852 30.7865V25.3256C24.499 24.3654 24.3055 23.412 23.9155 22.5194C27.4855 21.8299 33 19.6993 33 11.7632Z" fill="#3957A3"/>
</svg>
