<svg width="34" height="22" viewBox="0 0 34 22" fill="none" xmlns="http://www.w3.org/2000/svg">
<path fill-rule="evenodd" clip-rule="evenodd" d="M2.62782 0H31.3722C32.0688 0.000827078 32.7367 0.255623 33.2293 0.708511C33.722 1.1614 33.9991 1.77541 34 2.41589V19.5841C33.9991 20.2246 33.722 20.8386 33.2293 21.2915C32.7367 21.7444 32.0688 21.9992 31.3722 22H2.62782C1.93116 21.9992 1.26328 21.7444 0.770665 21.2915C0.278048 20.8386 0.000899634 20.2246 0 19.5841V2.41589C0.000899634 1.77541 0.278048 1.1614 0.770665 0.708511C1.26328 0.255623 1.93116 0.000827078 2.62782 0ZM32.4062 2.6083L18.7306 13.6229C18.2537 14.0116 17.6385 14.2263 17.0011 14.2263C16.3638 14.2263 15.7485 14.0116 15.2717 13.6229L1.59384 2.6083V19.5841C1.59464 19.836 1.70383 20.0774 1.89757 20.2555C2.09131 20.4336 2.35384 20.534 2.62782 20.5347H31.3722C31.6462 20.534 31.9087 20.4336 32.1024 20.2555C32.2962 20.0774 32.4054 19.836 32.4062 19.5841V2.6083ZM2.58589 1.466L16.3166 12.524C16.5056 12.6765 16.7485 12.7605 17 12.7605C17.2515 12.7605 17.4944 12.6765 17.6834 12.524L31.4141 1.466C31.4005 1.466 31.3862 1.466 31.3722 1.466H2.62782C2.61384 1.4653 2.59987 1.4653 2.58589 1.466Z" fill="#3957A3"/>
</svg>
