<svg width="31" height="22" viewBox="0 0 31 22" fill="none" xmlns="http://www.w3.org/2000/svg">
<path fill-rule="evenodd" clip-rule="evenodd" d="M2.39596 0H28.604C29.2392 0.000827078 29.8482 0.255623 30.2973 0.708511C30.7465 1.1614 30.9992 1.77541 31 2.41589V19.5841C30.9992 20.2246 30.7465 20.8386 30.2973 21.2915C29.8482 21.7444 29.2392 21.9992 28.604 22H2.39596C1.76076 21.9992 1.15182 21.7444 0.702665 21.2915C0.253514 20.8386 0.000820254 20.2246 0 19.5841V2.41589C0.000820254 1.77541 0.253514 1.1614 0.702665 0.708511C1.15182 0.255623 1.76076 0.000827078 2.39596 0ZM29.5468 2.6083L17.0779 13.6229C16.6431 14.0116 16.0821 14.2263 15.501 14.2263C14.9199 14.2263 14.359 14.0116 13.9242 13.6229L1.45321 2.6083V19.5841C1.45394 19.836 1.5535 20.0774 1.73014 20.2555C1.90678 20.4336 2.14615 20.534 2.39596 20.5347H28.604C28.8539 20.534 29.0932 20.4336 29.2699 20.2555C29.4465 20.0774 29.5461 19.836 29.5468 19.5841V2.6083ZM2.35772 1.466L14.8769 12.524C15.0493 12.6765 15.2707 12.7605 15.5 12.7605C15.7293 12.7605 15.9507 12.6765 16.1231 12.524L28.6423 1.466C28.6299 1.466 28.6168 1.466 28.604 1.466H2.39596C2.38321 1.4653 2.37047 1.4653 2.35772 1.466Z" fill="#3957A3"/>
</svg>
